<svg class="diagram-root" style="background: #f5f6f6" xmlns="http://www.w3.org/2000/svg" xmlns:xlink="http://www.w3.org/1999/xlink"><style>.diagram-root { font-family: "Helvetica Neue", sans-serif; font-size: 12px; } .t { overflow: visible; } .t-bg { y: 40; fill: #fff;   } .th { fill: #005aa0;   } .tht { fill: #fff; font-size: 14px;  } .tf { fill: #323c46; overflow: visible; } .tf.pk { fill: #005aa0; font-weight: bold; } .tf.fk { font-weight: bold; } .ty { fill: #adb1b5; font-weight: normal; text-anchor: end; } .r { fill: transparent; stroke: #c3c3c3; stroke-width: 1; } .l { stroke: 1; } .i { fill: #c2c7ce; stroke: #c2c7ce; } .i.ix { fill: #afb3b6; stroke: #000; } .fa { fill: transparent; overflow: visible; } .fa .bg.hover { fill: #f7f7f7; } .c { cy: 12; r: 4; stroke: #d2d2dc; fill: #d2d2dc; } .hr { fill: transparent; stroke: #323c46; stroke-opacity: 0.035; stroke-width: 13; } .dc { stroke: #fa5a3c; fill: #fa5a3c; } .x { stroke: white; stroke-width: 1; } .hl .th { fill: #1b9bff; } .hl .tht {  } .fhl .bg { fill: #e7f4ff; } .fhls .bg {  } .r.hl { stroke: #1b9bff; } .dim { opacity: 0.25; }</style><g class="drawing-wrapper" transform="translate(366.66888888888866, 53.888888888888886) scale(1,1)"><g class="rs"><path d="M -54.78 58.11 m -1, 0 a 1,1 0 1,0 2,0 a 1,1 0 1,0 -2,0 M -54.78 58.11 m -0.5, 0 a 0.5,0.5 0 1,0 1,0 a 0.5,0.5 0 1,0 -1,0  M-54.78 58.11 L-54.78 58.11 -66.78 58.11 M -54.78 64.11 m -1, 0 a 1,1 0 1,0 2,0 a 1,1 0 1,0 -2,0 M -54.78 64.11 m -0.5, 0 a 0.5,0.5 0 1,0 1,0 a 0.5,0.5 0 1,0 -1,0  M-54.78 64.11 L-54.78 64.11 -61.78 58.11 -54.78 52.11 M -54.78 52.11 m -1, 0 a 1,1 0 1,0 2,0 a 1,1 0 1,0 -2,0 M -54.78 52.11 m -0.5, 0 a 0.5,0.5 0 1,0 1,0 a 0.5,0.5 0 1,0 -1,0  M-66.78 58.11 Q -88.3 58.11, -109.82 74.56 T -152.86 91.00111111111104 M -164.86 91.00111111111104 m -1, 0 a 1,1 0 1,0 2,0 a 1,1 0 1,0 -2,0 M -164.86 91.00111111111104 m -0.5, 0 a 0.5,0.5 0 1,0 1,0 a 0.5,0.5 0 1,0 -1,0  M-164.86 91.00111111111104 L-164.86 91.00111111111104 -152.86 91.00111111111104 M-158.86 97.00111111111104 L-158.86 97.00111111111104 -158.86 85.00111111111104" id="h2553547647" class="r"></path><path d="M 376.0000000000004 85.22222222222223 m -1, 0 a 1,1 0 1,0 2,0 a 1,1 0 1,0 -2,0 M 376.0000000000004 85.22222222222223 m -0.5, 0 a 0.5,0.5 0 1,0 1,0 a 0.5,0.5 0 1,0 -1,0  M376.0000000000004 85.22222222222223 L376.0000000000004 85.22222222222223 364.0000000000004 85.22222222222223 M 376.0000000000004 91.22222222222223 m -1, 0 a 1,1 0 1,0 2,0 a 1,1 0 1,0 -2,0 M 376.0000000000004 91.22222222222223 m -0.5, 0 a 0.5,0.5 0 1,0 1,0 a 0.5,0.5 0 1,0 -1,0  M376.0000000000004 91.22222222222223 L376.0000000000004 91.22222222222223 369.0000000000004 85.22222222222223 376.0000000000004 79.22222222222223 M 376.0000000000004 79.22222222222223 m -1, 0 a 1,1 0 1,0 2,0 a 1,1 0 1,0 -2,0 M 376.0000000000004 79.22222222222223 m -0.5, 0 a 0.5,0.5 0 1,0 1,0 a 0.5,0.5 0 1,0 -1,0  M364.0000000000004 85.22222222222223 Q 305.93 85.22222222222223, 247.85 59.17 T 131.69 33.11 M 119.69 33.11 m -1, 0 a 1,1 0 1,0 2,0 a 1,1 0 1,0 -2,0 M 119.69 33.11 m -0.5, 0 a 0.5,0.5 0 1,0 1,0 a 0.5,0.5 0 1,0 -1,0  M119.69 33.11 L119.69 33.11 131.69 33.11 M125.69 39.11 L125.69 39.11 125.69 27.11" id="h3956705904" class="r"></path><path d="M 197.5 429.6722222222218 m -1, 0 a 1,1 0 1,0 2,0 a 1,1 0 1,0 -2,0 M 197.5 429.6722222222218 m -0.5, 0 a 0.5,0.5 0 1,0 1,0 a 0.5,0.5 0 1,0 -1,0  M197.5 429.6722222222218 L197.5 429.6722222222218 209.5 429.6722222222218 M 197.5 435.6722222222218 m -1, 0 a 1,1 0 1,0 2,0 a 1,1 0 1,0 -2,0 M 197.5 435.6722222222218 m -0.5, 0 a 0.5,0.5 0 1,0 1,0 a 0.5,0.5 0 1,0 -1,0  M197.5 435.6722222222218 L197.5 435.6722222222218 204.5 429.6722222222218 197.5 423.6722222222218 M 197.5 423.6722222222218 m -1, 0 a 1,1 0 1,0 2,0 a 1,1 0 1,0 -2,0 M 197.5 423.6722222222218 m -0.5, 0 a 0.5,0.5 0 1,0 1,0 a 0.5,0.5 0 1,0 -1,0  M209.5 429.6722222222218 C 259.5 429.6722222222218, 306.18600000000004 33.11, 131.69 33.11 M 119.69 33.11 m -1, 0 a 1,1 0 1,0 2,0 a 1,1 0 1,0 -2,0 M 119.69 33.11 m -0.5, 0 a 0.5,0.5 0 1,0 1,0 a 0.5,0.5 0 1,0 -1,0  M119.69 33.11 L119.69 33.11 131.69 33.11 M125.69 39.11 L125.69 39.11 125.69 27.11" id="h3286653075" class="r"></path><path d="M 29.004444444444335 454.6722222222218 m -1, 0 a 1,1 0 1,0 2,0 a 1,1 0 1,0 -2,0 M 29.004444444444335 454.6722222222218 m -0.5, 0 a 0.5,0.5 0 1,0 1,0 a 0.5,0.5 0 1,0 -1,0  M29.004444444444335 454.6722222222218 L29.004444444444335 454.6722222222218 17.004444444444335 454.6722222222218 M 29.004444444444335 460.6722222222218 m -1, 0 a 1,1 0 1,0 2,0 a 1,1 0 1,0 -2,0 M 29.004444444444335 460.6722222222218 m -0.5, 0 a 0.5,0.5 0 1,0 1,0 a 0.5,0.5 0 1,0 -1,0  M29.004444444444335 460.6722222222218 L29.004444444444335 460.6722222222218 22.004444444444335 454.6722222222218 29.004444444444335 448.6722222222218 M 29.004444444444335 448.6722222222218 m -1, 0 a 1,1 0 1,0 2,0 a 1,1 0 1,0 -2,0 M 29.004444444444335 448.6722222222218 m -0.5, 0 a 0.5,0.5 0 1,0 1,0 a 0.5,0.5 0 1,0 -1,0  M17.004444444444335 454.6722222222218 Q -22.37 454.6722222222218, -61.75 366.22 T -140.51 277.7722222222221 M -152.51 277.7722222222221 m -1, 0 a 1,1 0 1,0 2,0 a 1,1 0 1,0 -2,0 M -152.51 277.7722222222221 m -0.5, 0 a 0.5,0.5 0 1,0 1,0 a 0.5,0.5 0 1,0 -1,0  M-152.51 277.7722222222221 L-152.51 277.7722222222221 -140.51 277.7722222222221 M-146.51 283.7722222222221 L-146.51 283.7722222222221 -146.51 271.7722222222221" id="h1607168654" class="r"></path><path d="M 323.75555555555536 351.406666666667 m -1, 0 a 1,1 0 1,0 2,0 a 1,1 0 1,0 -2,0 M 323.75555555555536 351.406666666667 m -0.5, 0 a 0.5,0.5 0 1,0 1,0 a 0.5,0.5 0 1,0 -1,0  M323.75555555555536 351.406666666667 L323.75555555555536 351.406666666667 311.75555555555536 351.406666666667 M 323.75555555555536 357.406666666667 m -1, 0 a 1,1 0 1,0 2,0 a 1,1 0 1,0 -2,0 M 323.75555555555536 357.406666666667 m -0.5, 0 a 0.5,0.5 0 1,0 1,0 a 0.5,0.5 0 1,0 -1,0  M323.75555555555536 357.406666666667 L323.75555555555536 357.406666666667 316.75555555555536 351.406666666667 323.75555555555536 345.406666666667 M 323.75555555555536 345.406666666667 m -1, 0 a 1,1 0 1,0 2,0 a 1,1 0 1,0 -2,0 M 323.75555555555536 345.406666666667 m -0.5, 0 a 0.5,0.5 0 1,0 1,0 a 0.5,0.5 0 1,0 -1,0  M311.75555555555536 351.406666666667 Q 198.69 351.406666666667, 85.62 314.59 T -140.51 277.7722222222221 M -152.51 277.7722222222221 m -1, 0 a 1,1 0 1,0 2,0 a 1,1 0 1,0 -2,0 M -152.51 277.7722222222221 m -0.5, 0 a 0.5,0.5 0 1,0 1,0 a 0.5,0.5 0 1,0 -1,0  M-152.51 277.7722222222221 L-152.51 277.7722222222221 -140.51 277.7722222222221 M-146.51 283.7722222222221 L-146.51 283.7722222222221 -146.51 271.7722222222221" id="h1397587031" class="r"></path><path d="M 323.75555555555536 376.406666666667 m -1, 0 a 1,1 0 1,0 2,0 a 1,1 0 1,0 -2,0 M 323.75555555555536 376.406666666667 m -0.5, 0 a 0.5,0.5 0 1,0 1,0 a 0.5,0.5 0 1,0 -1,0  M323.75555555555536 376.406666666667 L323.75555555555536 376.406666666667 311.75555555555536 376.406666666667 M 323.75555555555536 382.406666666667 m -1, 0 a 1,1 0 1,0 2,0 a 1,1 0 1,0 -2,0 M 323.75555555555536 382.406666666667 m -0.5, 0 a 0.5,0.5 0 1,0 1,0 a 0.5,0.5 0 1,0 -1,0  M323.75555555555536 382.406666666667 L323.75555555555536 382.406666666667 316.75555555555536 376.406666666667 323.75555555555536 370.406666666667 M 323.75555555555536 370.406666666667 m -1, 0 a 1,1 0 1,0 2,0 a 1,1 0 1,0 -2,0 M 323.75555555555536 370.406666666667 m -0.5, 0 a 0.5,0.5 0 1,0 1,0 a 0.5,0.5 0 1,0 -1,0  M311.75555555555536 376.406666666667 Q 266.74 376.406666666667, 221.72 204.76 T 131.69 33.11 M 119.69 33.11 m -1, 0 a 1,1 0 1,0 2,0 a 1,1 0 1,0 -2,0 M 119.69 33.11 m -0.5, 0 a 0.5,0.5 0 1,0 1,0 a 0.5,0.5 0 1,0 -1,0  M119.69 33.11 L119.69 33.11 131.69 33.11 M125.69 39.11 L125.69 39.11 125.69 27.11" id="h3728003642" class="r"></path></g><g class="hrs"></g><g class="ts"><svg width="179.81" height="100" x="-344.66888888888866" y="34.00111111111104" id="h1006881043" class="t"><rect height="40" width="179.81" class="th"></rect><text x="13" y="25" class="tht">title</text><rect height="60" width="179.81" class="t-bg"></rect><text x="13" y="61" class="tf pk">title_id<tspan x="166.81" class="ty">VARCHAR(30)</tspan></text><path d="M7,14A2,2 0 0,1 5,12A2,2 0 0,1 7,10A2,2 0 0,1 9,12A2,2 0 0,1 7,14M12.65,10C11.83,7.67 9.61,6 7, 6A6, 6 0 0, 0 1, 12A6, 6 0 0, 0 7, 18C9.61, 18 11.83, 16.33 12.65, 14H17V18H21V14H23V10H12.65Z" class="i pk" transform="translate(67.685, 48) scale(0.65)"></path><text x="13" y="86" class="tf">title<tspan x="166.81" class="ty">VARCHAR(50)</tspan></text></svg><svg width="108.7" height="100" x="376.0000000000004" y="28.22222222222222" id="h52730927" class="t"><rect height="40" width="108.7" class="th"></rect><text x="13" y="25" class="tht">salary</text><rect height="60" width="108.7" class="t-bg"></rect><text x="13" y="61" class="tf fk">emp_no<tspan x="95.7" class="ty">INT</tspan></text><text x="13" y="86" class="tf">salary<tspan x="95.7" class="ty">INT</tspan></text></svg><svg width="174.47" height="225" x="-54.78" y="-23.89" id="h2075019312" class="t"><rect height="40" width="174.47" class="th"></rect><text x="13" y="25" class="tht">employee</text><rect height="185" width="174.47" class="t-bg"></rect><text x="13" y="61" class="tf pk">emp_no<tspan x="161.47" class="ty">INT</tspan></text><path d="M7,14A2,2 0 0,1 5,12A2,2 0 0,1 7,10A2,2 0 0,1 9,12A2,2 0 0,1 7,14M12.65,10C11.83,7.67 9.61,6 7, 6A6, 6 0 0, 0 1, 12A6, 6 0 0, 0 7, 18C9.61, 18 11.83, 16.33 12.65, 14H17V18H21V14H23V10H12.65Z" class="i pk" transform="translate(122.139921875, 48) scale(0.65)"></path><text x="13" y="86" class="tf fk">emp_title<tspan x="161.47" class="ty">VARCHAR(30)</tspan></text><text x="13" y="111" class="tf">birth_date<tspan x="161.47" class="ty">DATE</tspan></text><text x="13" y="136" class="tf">firstname<tspan x="161.47" class="ty">VARCHAR(50)</tspan></text><text x="13" y="161" class="tf">lastname<tspan x="161.47" class="ty">VARCHAR(50)</tspan></text><text x="13" y="186" class="tf">sex<tspan x="161.47" class="ty">VARCHAR(2)</tspan></text><text x="13" y="211" class="tf">hire_date<tspan x="161.47" class="ty">DATE</tspan></text></svg><svg width="188.5" height="100" x="-341.00777777777796" y="220.77222222222215" id="h475896179" class="t"><rect height="40" width="188.5" class="th"></rect><text x="13" y="25" class="tht">departments</text><rect height="60" width="188.5" class="t-bg"></rect><text x="13" y="61" class="tf pk">dept_no<tspan x="175.5" class="ty">VARCHAR(50)</tspan></text><path d="M7,14A2,2 0 0,1 5,12A2,2 0 0,1 7,10A2,2 0 0,1 9,12A2,2 0 0,1 7,14M12.65,10C11.83,7.67 9.61,6 7, 6A6, 6 0 0, 0 1, 12A6, 6 0 0, 0 7, 18C9.61, 18 11.83, 16.33 12.65, 14H17V18H21V14H23V10H12.65Z" class="i pk" transform="translate(76.375, 48) scale(0.65)"></path><text x="13" y="86" class="tf">dept_name<tspan x="175.5" class="ty">VARCHAR(50)</tspan></text></svg><svg width="168.5" height="100" x="29.004444444444335" y="372.6722222222218" id="h1090417462" class="t"><rect height="40" width="168.5" class="th"></rect><text x="13" y="25" class="tht">dept_emp</text><rect height="60" width="168.5" class="t-bg"></rect><text x="13" y="61" class="tf fk">emp_no<tspan x="155.5" class="ty">VARCHAR(50)</tspan></text><text x="13" y="86" class="tf fk">dept_no<tspan x="155.5" class="ty">VARCHAR(50)</tspan></text></svg><svg width="168.5" height="100" x="323.75555555555536" y="294.406666666667" id="h1676682957" class="t"><rect height="40" width="168.5" class="th"></rect><text x="13" y="25" class="tht">dept_manager</text><rect height="60" width="168.5" class="t-bg"></rect><text x="13" y="61" class="tf fk">dept_no<tspan x="155.5" class="ty">VARCHAR(50)</tspan></text><text x="13" y="86" class="tf fk">emp_no<tspan x="155.5" class="ty">VARCHAR(50)</tspan></text></svg></g></g><text class="qdbd-link" x="10" y="20">www.quickdatabasediagrams.com</text></svg>